<svg width="40" height="40" viewBox="0 0 40 40" fill="none" xmlns="http://www.w3.org/2000/svg">
<g clip-path="url(#clip0_1_2341)">
<g clip-path="url(#clip1_1_2341)">
<path d="M20 3.33333C10.8 3.33333 3.33333 10.8 3.33333 20C3.33333 29.2 10.8 36.6667 20 36.6667C29.2 36.6667 36.6667 29.2 36.6667 20C36.6667 10.8 29.2 3.33333 20 3.33333ZM26.6667 21.6667H21.6667V26.6667C21.6667 27.5833 20.9167 28.3333 20 28.3333C19.0833 28.3333 18.3333 27.5833 18.3333 26.6667V21.6667H13.3333C12.4167 21.6667 11.6667 20.9167 11.6667 20C11.6667 19.0833 12.4167 18.3333 13.3333 18.3333H18.3333V13.3333C18.3333 12.4167 19.0833 11.6667 20 11.6667C20.9167 11.6667 21.6667 12.4167 21.6667 13.3333V18.3333H26.6667C27.5833 18.3333 28.3333 19.0833 28.3333 20C28.3333 20.9167 27.5833 21.6667 26.6667 21.6667Z" fill="#0096C8"/>
</g>
</g>
<defs>
<clipPath id="clip0_1_2341">
<rect width="40" height="40" fill="white"/>
</clipPath>
<clipPath id="clip1_1_2341">
<rect width="40" height="40" fill="white"/>
</clipPath>
</defs>
</svg>
