<svg width="16" height="16" viewBox="0 0 16 16" fill="none" xmlns="http://www.w3.org/2000/svg">
<g clip-path="url(#clip0_1_1973)">
<path fill-rule="evenodd" clip-rule="evenodd" d="M3.44813 8.00004C3.44813 7.48042 3.53438 6.98217 3.6885 6.51492L0.992252 4.45604C0.466752 5.52292 0.170752 6.72517 0.170752 8.00004C0.170752 9.27392 0.466502 10.4753 0.991127 11.5415L3.68588 9.47867C3.53325 9.01354 3.44813 8.51717 3.44813 8.00004Z" fill="#FBBC05"/>
<path fill-rule="evenodd" clip-rule="evenodd" d="M8.18212 3.27275C9.311 3.27275 10.3306 3.67275 11.1317 4.32725L13.4622 2C12.0421 0.763625 10.2214 0 8.18212 0C5.01612 0 2.29512 1.8105 0.992247 4.456L3.68837 6.51487C4.30962 4.62912 6.0805 3.27275 8.18212 3.27275Z" fill="#EA4335"/>
<path fill-rule="evenodd" clip-rule="evenodd" d="M8.18212 12.7274C6.08062 12.7274 4.30975 11.371 3.6885 9.48524L0.992247 11.5437C2.29512 14.1896 5.01612 16.0001 8.18212 16.0001C10.1361 16.0001 12.0017 15.3062 13.4019 14.0062L10.8426 12.0277C10.1205 12.4826 9.21112 12.7274 8.18212 12.7274Z" fill="#34A853"/>
<path fill-rule="evenodd" clip-rule="evenodd" d="M15.8293 8.0002C15.8293 7.52745 15.7564 7.01833 15.6471 6.5457H8.18213V9.63658H12.4791C12.2642 10.6905 11.6795 11.5006 10.8426 12.0278L13.4019 14.0063C14.8726 12.6413 15.8293 10.6078 15.8293 8.0002Z" fill="#4285F4"/>
</g>
<defs>
<clipPath id="clip0_1_1973">
<rect width="16" height="16" fill="white"/>
</clipPath>
</defs>
</svg>
