<svg width="24" height="24" viewBox="0 0 24 24" fill="none" xmlns="http://www.w3.org/2000/svg">
<path d="M21.9201 7.24993V7.37993L20.4601 12.7799C20.2875 13.4209 19.9073 13.9865 19.3789 14.3882C18.8505 14.7899 18.2038 15.0051 17.5401 14.9999H9.89007C9.13906 15.003 8.41423 14.7242 7.85877 14.2188C7.30332 13.7133 6.95765 13.0179 6.89007 12.2699L6.24007 4.90993C6.21754 4.66061 6.10232 4.42881 5.91717 4.26032C5.73202 4.09183 5.4904 3.99892 5.24007 3.99993H3.07007C2.80485 3.99993 2.5505 3.89458 2.36296 3.70704C2.17543 3.5195 2.07007 3.26515 2.07007 2.99993C2.07007 2.73472 2.17543 2.48036 2.36296 2.29283C2.5505 2.10529 2.80485 1.99993 3.07007 1.99993H5.24007C5.99107 1.99689 6.71591 2.27563 7.27136 2.78109C7.82682 3.28655 8.17248 3.98197 8.24007 4.72993V4.99993H19.9301C20.2151 4.9977 20.4974 5.05643 20.7579 5.17219C21.0184 5.28795 21.2512 5.45807 21.4406 5.67114C21.63 5.88421 21.7716 6.13531 21.8561 6.4076C21.9405 6.6799 21.9657 6.96709 21.9301 7.24993H21.9201Z" fill="#8064A2"/>
<path d="M9.07007 22C10.4508 22 11.5701 20.8808 11.5701 19.5C11.5701 18.1193 10.4508 17 9.07007 17C7.68936 17 6.57007 18.1193 6.57007 19.5C6.57007 20.8808 7.68936 22 9.07007 22Z" fill="#8064A2"/>
<path d="M17.0701 22C18.4508 22 19.5701 20.8808 19.5701 19.5C19.5701 18.1193 18.4508 17 17.0701 17C15.6894 17 14.5701 18.1193 14.5701 19.5C14.5701 20.8808 15.6894 22 17.0701 22Z" fill="#8064A2"/>
</svg>
